<?xml version="1.0" standalone="no"?><!DOCTYPE svg PUBLIC "-//W3C//DTD SVG 1.1//EN" "http://www.w3.org/Graphics/SVG/1.1/DTD/svg11.dtd"><svg t="1604925400347" class="icon" viewBox="0 0 1024 1024" version="1.1" xmlns="http://www.w3.org/2000/svg" p-id="10291" xmlns:xlink="http://www.w3.org/1999/xlink" width="200" height="200"><defs><style type="text/css"></style></defs><path d="M953.856 709.12c-19.456 0-32.256 12.8-32.256 32.256v140.8H76.8V261.12h844.8v134.656c0 19.456 12.8 32.256 32.256 32.256s32.256-12.8 32.256-32.256v-128c0-38.4-32.256-70.656-70.656-70.656h-51.2c-19.456-70.656-83.456-128-160.256-128h-537.6C76.8 69.12 0 145.92 0 235.52v646.656c0 38.4 32.256 70.656 70.656 70.656h844.8c38.4 0 70.656-32.256 70.656-70.656v-140.8c-0.512-12.8-13.312-32.256-32.256-32.256zM166.4 139.264h537.6c38.4 0 70.656 25.6 89.6 57.856H83.456c12.8-31.744 44.544-57.856 82.944-57.856z" p-id="10292"></path><path d="M704 574.464c0 17.92 14.336 32.256 32.256 32.256s32.256-14.336 32.256-32.256-14.336-32.256-32.256-32.256-32.256 14.848-32.256 32.256zM476.672 623.616c13.824-1.024 26.112 9.728 27.136 23.552 1.024 13.824-9.728 26.112-23.552 27.136H369.152v66.56c0 14.848-11.776 26.624-26.624 26.624-14.848 0-26.624-11.776-26.624-26.624v-66.56h-107.52c-13.824 1.024-26.112-9.728-27.136-23.552-1.024-13.824 9.728-26.112 23.552-27.136h111.616v-32.256H208.384c-13.824 1.024-26.112-9.728-27.136-23.552-1.024-13.824 9.728-26.112 23.552-27.136h76.8L206.848 414.208c-7.168-11.776-3.072-26.624 8.704-33.792 0.512 0 0.512-0.512 1.024-0.512 12.8-7.168 28.16-3.072 35.84 9.216l90.112 152.064h4.608L437.248 389.12c7.68-12.288 23.552-16.384 35.84-9.216 12.288 6.144 16.896 21.504 10.24 33.28 0 0.512-0.512 0.512-0.512 1.024l-74.752 126.976h68.608c13.824-1.024 26.112 9.728 27.136 23.552s-9.728 26.112-23.552 27.136H369.152v32.256h107.52z" p-id="10293"></path><path d="M904.192 509.44c34.816 0 63.488 28.672 63.488 63.488v3.584c0 34.816-28.672 63.488-63.488 63.488h-176.64c-34.816 0-63.488-28.672-63.488-63.488v-3.584c0-34.816 28.672-63.488 63.488-63.488h176.64m0-56.32h-176.64c-66.048 0-119.808 53.76-119.808 119.808v3.584c0 66.048 53.76 119.808 119.808 119.808h176.64c66.048 0 119.808-53.76 119.808-119.808v-3.584c0-66.048-53.76-119.808-119.808-119.808z" p-id="10294"></path></svg>