<?xml version="1.0" standalone="no"?><!DOCTYPE svg PUBLIC "-//W3C//DTD SVG 1.1//EN" "http://www.w3.org/Graphics/SVG/1.1/DTD/svg11.dtd"><svg t="1604925278637" class="icon" viewBox="0 0 1024 1024" version="1.1" xmlns="http://www.w3.org/2000/svg" p-id="7276" xmlns:xlink="http://www.w3.org/1999/xlink" width="200" height="200"><defs><style type="text/css"></style></defs><path d="M551.77 159.24v-16.325c0-24.567-20.1-44.666-44.666-44.666h-5.574c-24.585 0-44.665 20.1-44.665 44.666v18.103c-186.217 26.523-329.862 186.948-329.862 380.36 0 211.888 172.382 384.27 384.291 384.27 28.34 0 56.645-3.102 84.076-9.23 13.697-3.063 22.333-16.622 19.27-30.318-3.063-13.716-16.7-22.293-30.337-19.27a336.885 336.885 0 0 1-73.009 8.005c-183.884 0-333.497-149.594-333.497-333.458S327.41 207.9 511.294 207.9c183.865 0 333.46 149.615 333.46 333.478 0 24.528-2.69 48.995-7.948 72.711-3.042 13.697 5.574 27.256 19.291 30.298 13.677 3.103 27.255-5.573 30.318-19.269 6.068-27.314 9.15-55.497 9.15-83.74 0-198.213-150.859-361.839-343.796-382.137z m-39.785 163.646c-14.031 0-25.395 11.383-25.395 25.395v191.552c0 14.034 11.364 25.417 25.395 25.417h179.26c14.052 0 25.396-11.383 25.396-25.417 0-14.032-11.344-25.395-25.396-25.395H537.402V348.282c0-14.013-11.364-25.396-25.417-25.396z m239.283 328.101c-73.937 0-133.882 59.925-133.882 133.861 0 73.918 59.945 133.842 133.882 133.842 73.917 0 133.841-59.924 133.841-133.842 0-73.936-59.923-133.86-133.841-133.86z m44.746 150.958c7.926 0 14.348 6.423 14.348 14.329 0 7.925-6.422 14.33-14.348 14.33h-29.765v27.392c0 7.926-6.444 14.349-14.349 14.349-7.924 0-14.347-6.423-14.347-14.349v-27.393h-32.334c-7.925 0-14.349-6.404-14.349-14.329 0-7.906 6.424-14.33 14.35-14.33h32.332v-15.631h-31.07c-7.906 0-14.327-6.424-14.327-14.33 0-7.924 6.42-14.348 14.328-14.348h20.12l-21.958-21.978c-5.594-5.594-5.594-14.665 0-20.259 5.593-5.611 14.686-5.611 20.258 0l27.156 27.138 27.155-27.138c5.612-5.611 14.686-5.611 20.278 0 5.613 5.594 5.613 14.665 0 20.259l-21.977 21.978h19.783c7.925 0 14.33 6.424 14.33 14.348 0 7.906-6.405 14.33-14.33 14.33h-31.05v15.632h29.766z" p-id="7277"></path></svg>