<?xml version="1.0" standalone="no"?><!DOCTYPE svg PUBLIC "-//W3C//DTD SVG 1.1//EN" "http://www.w3.org/Graphics/SVG/1.1/DTD/svg11.dtd"><svg t="1604925324217" class="icon" viewBox="0 0 1024 1024" version="1.1" xmlns="http://www.w3.org/2000/svg" p-id="8052" xmlns:xlink="http://www.w3.org/1999/xlink" width="200" height="200"><defs><style type="text/css"></style></defs><path d="M768.8192 215.552C909.8752 310.9888 1006.933333 481.160533 1006.933333 660.770133 1006.933333 908.066133 822.459733 1024 520.533333 1024 218.606933 1024 34.133333 908.049067 34.133333 660.770133c0-181.76 99.396267-353.860267 243.2-448.6144l-51.746133-101.597866a34.133333 34.133333 0 0 1 16.128-46.4896c43.485867-20.053333 58.589867-26.709333 80.008533-34.645334C378.402133 8.362667 432.810667 0 521.3696 0c86.101333 0 140.9024 7.936 197.956267 27.562667 23.7056 8.157867 40.4992 15.121067 88.9856 36.1984a34.133333 34.133333 0 0 1 16.469333 47.445333l-55.9616 104.3456z m-59.0848-34.235733l37.3248-69.632c-22.4768-9.557333-34.833067-14.370133-49.954133-19.5584C647.7312 75.127467 600.337067 68.266667 521.386667 68.266667c-80.913067 0-127.419733 7.150933-175.889067 25.1392a627.2 627.2 0 0 0-42.9056 17.902933l34.304 67.345067C393.966933 151.7056 456.106667 136.533333 520.533333 136.533333c66.525867 0 130.594133 16.1792 189.201067 44.782934zM520.533333 955.733333C789.504 955.733333 938.666667 861.986133 938.666667 660.770133 938.666667 423.850667 743.150933 204.8 520.533333 204.8S102.4 423.850667 102.4 660.770133C102.4 861.986133 251.562667 955.733333 520.533333 955.733333z" p-id="8053"></path><path d="M365.397333 479.010133c-13.482667-28.8768 16.469333-58.8288 45.346134-45.3632a280.098133 280.098133 0 0 0 236.6464 0c28.8768-13.4656 58.8288 16.4864 45.3632 45.3632a280.098133 280.098133 0 0 0 0 236.6464c13.4656 28.8768-16.4864 58.8288-45.3632 45.3632a280.098133 280.098133 0 0 0-236.6464 0c-28.8768 13.4656-58.8288-16.4864-45.3632-45.3632a280.098133 280.098133 0 0 0 0-236.6464z m85.623467 196.369067a348.4672 348.4672 0 0 1 156.091733 0 348.4672 348.4672 0 0 1 0-156.091733 348.4672 348.4672 0 0 1-156.091733 0 348.4672 348.4672 0 0 1 0 156.091733z" p-id="8054"></path></svg>