<?xml version="1.0" standalone="no"?><!DOCTYPE svg PUBLIC "-//W3C//DTD SVG 1.1//EN" "http://www.w3.org/Graphics/SVG/1.1/DTD/svg11.dtd"><svg t="1604925353663" class="icon" viewBox="0 0 1024 1024" version="1.1" xmlns="http://www.w3.org/2000/svg" p-id="8820" xmlns:xlink="http://www.w3.org/1999/xlink" width="200" height="200"><defs><style type="text/css"></style></defs><path d="M652.513 546.593c-17.826-2.314-33.128 1.262-48.143 6.542-10.959-34.487-42.824-59.695-80.869-59.695h-23.123c-37.07 0-68.132 23.947-79.838 57.038-10.865-4.743-22.493-8.493-36.265-8.493-10.098 0-20.198 1.95-30.871 5.986-29.57 11.189-43.896 48.966-35.652 94.011 12.663 69.295 75.685 139.243 187.942 139.243 130.102 0 196.969-94.523 201.177-158.408 2.755-41.526-18.572-71.458-54.359-76.222z m-152.133-3.977h23.123c16.698 0 30.66 11.438 34.793 26.873-14.364 3.922-31.158 6.79-52.599 6.79-16.372 0-29.302-2.372-40.415-5.892 3.803-15.893 18.035-27.771 35.098-27.771z m5.315 189.434c-84.579 0-126.793-47.589-138.097-92.117-6.828-26.931-0.363-44.03 3.195-45.963 5.031-1.894 9.43-2.811 13.485-2.811 8.243 0 16.144 3.747 29.379 10.403 20.123 10.082 47.626 23.91 92.039 23.91 48.334 0 79.376-12.203 102.061-21.078 16.105-6.311 26.568-10.654 38.292-9.048 8.798 1.168 12.758 9.317 11.783 24.234-3.023 45.332-53.441 112.468-152.138 112.468z" p-id="8821"></path><path d="M791.834 197.851v-47.817c0-13.58-10.998-24.598-24.597-24.598H255.324c-13.581 0-24.598 11.017-24.598 24.598v47.817c-44.986 7.555-79.415 46.671-79.415 93.779v553.113c0 52.486 42.691 95.196 95.196 95.196h529.567c52.485 0 95.196-42.71 95.196-95.196V291.63c0-47.108-34.448-86.224-79.435-93.779z m30.259 93.78v63.292h-30.259V248.577c17.598 6.465 30.259 23.239 30.259 43.055z m-79.435-95.193v158.485h-21.441V174.614h21.441v21.824z m-70.596 0v158.485H650.62V174.614h21.442v21.824zM279.92 174.613h321.525v180.309H279.92V174.613z m-49.194 73.964v106.346h-30.259v-63.292c0-19.816 12.662-36.59 30.259-43.055z m545.348 642.186H246.507c-25.382 0-46.039-20.657-46.039-46.02V404.097h621.627v440.646c-0.001 25.363-20.637 46.02-46.02 46.02z" p-id="8822"></path></svg>