<?xml version="1.0" standalone="no"?><!DOCTYPE svg PUBLIC "-//W3C//DTD SVG 1.1//EN" "http://www.w3.org/Graphics/SVG/1.1/DTD/svg11.dtd"><svg t="1602589531700" class="icon" viewBox="0 0 1024 1024" version="1.1" xmlns="http://www.w3.org/2000/svg" p-id="3722" xmlns:xlink="http://www.w3.org/1999/xlink" width="200" height="200"><defs><style type="text/css"></style></defs><path d="M503.466667 25.6c-263.509333 0-477.866667 214.4256-477.866667 477.866667 0 263.509333 214.357333 477.866667 477.866667 477.866666 263.441067 0 477.866667-214.357333 477.866666-477.866666 0-263.441067-214.4256-477.866667-477.866666-477.866667m0 51.2a427.144533 427.144533 0 0 1 426.666666 426.666667 427.144533 427.144533 0 0 1-426.666666 426.666666 427.144533 427.144533 0 0 1-426.666667-426.666666 427.144533 427.144533 0 0 1 426.666667-426.666667" fill="#515151" p-id="3723"></path><path d="M350.4128 451.106133a25.6 25.6 0 0 1 0-51.2h306.107733a25.6 25.6 0 0 1 0 51.2H350.4128z" fill="#515151" p-id="3724"></path><path d="M477.866667 428.168533a25.6 25.6 0 0 1 51.2 0v291.2256a25.6 25.6 0 1 1-51.2 0V428.168533z" fill="#515151" p-id="3725"></path><path d="M350.4128 598.289067a25.6 25.6 0 0 1 0-51.2h306.107733a25.6 25.6 0 0 1 0 51.2H350.4128zM547.976533 439.432533a25.6 25.6 0 0 1-39.253333-32.904533l113.527467-135.3728a25.6 25.6 0 0 1 39.253333 32.904533L547.976533 439.432533z" fill="#515151" p-id="3726"></path><path d="M345.429333 303.991467a25.6 25.6 0 0 1 39.185067-32.904534l113.595733 135.3728a25.6 25.6 0 0 1-39.253333 32.904534L345.429333 303.991467z" fill="#515151" p-id="3727"></path></svg>