<?xml version="1.0" standalone="no"?><!DOCTYPE svg PUBLIC "-//W3C//DTD SVG 1.1//EN" "http://www.w3.org/Graphics/SVG/1.1/DTD/svg11.dtd"><svg t="1602665662843" class="icon" viewBox="0 0 1024 1024" version="1.1" xmlns="http://www.w3.org/2000/svg" p-id="2638" xmlns:xlink="http://www.w3.org/1999/xlink" width="200" height="200"><defs><style type="text/css"></style></defs><path d="M580.878229 972.350666c-205.211778 0-309.25439-79.574337-309.25439-236.506529 0-130.107243 99.05911-271.021623 192.264908-337.552899 2.430352-1.735527 5.309936-2.665713 8.250918-2.665713l211.356732 0c3.089361 0 6.095835 1.023306 8.594749 2.914376 103.098099 78.094636 190.19476 232.5668 190.19476 337.304236C882.286929 892.777353 780.886495 972.350666 580.878229 972.350666zM678.699138 426.387134 476.719984 426.387134c-87.042425 64.012919-175.754886 195.857736-175.754886 309.458027 0 138.446165 91.564415 205.747991 279.914154 205.747991 185.625698 0 272.070512-65.382103 272.070512-205.747991C852.948741 642.541125 771.962242 499.200486 678.699138 426.387134zM590.620104 679.649278l0 28.092825 51.586912 0c8.111748 0 14.672164 6.885827 14.672164 15.378246 0 8.495488-6.560416 15.383362-14.672164 15.383362l-51.586912 0 0 38.71065 51.586912 0c8.111748 0 14.672164 6.887874 14.672164 15.380292 0 8.493441-6.560416 15.380292-14.672164 15.380292l-51.586912 0 0 50.339502c0 8.493441-6.577812 15.376199-14.670118 15.376199-8.108678 0-14.669094-6.883781-14.669094-15.376199l0-50.339502-48.91199 0c-8.092305 0-14.669094-6.886851-14.669094-15.380292 0-8.492418 6.576789-15.380292 14.669094-15.380292l48.91199 0 0-38.71065-48.91199 0c-8.092305 0-14.669094-6.887874-14.669094-15.383362 0-8.493441 6.576789-15.378246 14.669094-15.378246l48.91199 0 0-28.184923-96.333022-130.322138c-4.955872-6.716982-3.787256-16.374946 2.614547-21.578458 6.412037-5.198395 15.623839-3.971451 20.581758 2.743484l87.920422 118.947066 89.790002-119.067816c5.019317-6.656607 14.247492-7.789407 20.61041-2.53166 6.350638 5.269004 7.43432 14.944364 2.40477 21.60404L590.620104 679.649278zM679.98748 340.2708c8.107655 0 14.670118 6.885827 14.670118 15.379269 0 8.495488-6.562463 15.383362-14.670118 15.383362L469.922161 371.033431c-8.096399 0-14.672164-6.887874-14.672164-15.383362 0-8.492418 6.575766-15.379269 14.672164-15.379269L679.98748 340.2708zM674.555771 300.460096c0 8.494465-6.560416 15.379269-14.670118 15.379269L487.514841 315.839365c-8.096399 0-14.672164-6.884804-14.672164-15.379269 0-48.457642-56.028061-135.24424-77.624938-164.591639-3.415796-4.641717-4.018523-10.918677-1.554402-16.177448 2.471284-5.26491 7.577582-8.598842 13.164834-8.598842 43.783179 0 88.351234 33.230845 111.221104 53.245691l42.24208-99.852172c2.355651-5.564739 7.607258-9.146311 13.409404-9.146311 5.801123 0 11.05887 3.581572 13.408381 9.146311l42.24822 99.852172c22.87908-20.015869 67.449181-53.245691 111.215988-53.245691 5.593392 0 10.700713 3.333932 13.165858 8.598842 2.464121 5.257747 1.861394 11.534707-1.549286 16.177448C730.603275 165.215856 674.555771 252.002454 674.555771 300.460096zM634.50152 200.791096c-3.416819 3.581572-8.317433 5.180999-13.049201 4.242627-4.758374-0.921999-8.769734-4.250814-10.732435-8.884344l-37.018102-87.497796-37.021172 87.497796c-1.955538 4.63353-5.966898 7.953136-10.715039 8.884344-4.758374 0.915859-9.634428-0.651846-13.050224-4.235464-0.447185-0.456395-34.387181-35.573193-72.491011-51.381228 22.219047 34.717709 54.092989 90.808192 60.584843 135.664819l145.390321 0c6.482645-44.779879 38.252209-100.743472 60.464093-135.471414C675.695734 162.662707 645.975852 188.767248 634.50152 200.791096z" p-id="2639"></path></svg>