<?xml version="1.0" standalone="no"?><!DOCTYPE svg PUBLIC "-//W3C//DTD SVG 1.1//EN" "http://www.w3.org/Graphics/SVG/1.1/DTD/svg11.dtd"><svg t="1604925038588" class="icon" viewBox="0 0 1024 1024" version="1.1" xmlns="http://www.w3.org/2000/svg" p-id="6431" xmlns:xlink="http://www.w3.org/1999/xlink" width="200" height="200"><defs><style type="text/css"></style></defs><path d="M829.44 247.296h-158.208V138.752c0-28.672-23.04-51.712-51.712-51.712H404.48c-28.672 0-51.712 23.04-51.712 51.712v108.544H194.56c-56.832 0-102.912 46.08-102.912 102.912v430.592c0 56.832 46.08 102.912 102.912 102.912h634.88c56.832 0 102.912-46.08 102.912-102.912V350.208c0-56.832-46.08-102.912-102.912-102.912zM421.376 155.648h180.736v86.528H421.376V155.648z m442.368 625.152c0 18.944-15.36 34.304-34.304 34.304H194.56c-18.944 0-34.304-15.36-34.304-34.304V350.208c0-18.944 15.36-34.304 34.304-34.304h634.88c18.944 0 34.304 15.36 34.304 34.304v430.592z" p-id="6432"></path><path d="M694.784 531.456h-149.504V381.44a34.304 34.304 0 0 0-68.608 0v149.504H326.656a34.304 34.304 0 0 0 0 68.608H476.16v149.504a34.304 34.304 0 0 0 68.608 0v-149.504h149.504c18.944 0 34.304-15.36 34.304-34.304s-14.848-33.792-33.792-33.792z" p-id="6433"></path></svg>