<?xml version="1.0" standalone="no"?><!DOCTYPE svg PUBLIC "-//W3C//DTD SVG 1.1//EN" "http://www.w3.org/Graphics/SVG/1.1/DTD/svg11.dtd"><svg t="1604925519008" class="icon" viewBox="0 0 1024 1024" version="1.1" xmlns="http://www.w3.org/2000/svg" p-id="11180" xmlns:xlink="http://www.w3.org/1999/xlink" width="200" height="200"><defs><style type="text/css"></style></defs><path d="M207.22787627 818.8221088c11.0522368 18.00777813 43.28765547 69.42878933 66.94108053 107.1581248 14.30295893 22.78671147 25.45562133 40.57071573 26.85284267 42.90887787 6.80926933 11.43101547 18.28285653 18.2402848 31.68307946 18.646352l0.93439147 0c12.6011872 0 25.1445216-5.94255573 37.70422933-18.16278294 29.3296352-34.29632 28.591728-51.31731093 28.23914774-59.4976032l-0.05239574-1.73015253c0.2128576-8.78830187 0.16592-30.41138987 0.11461547-54.54292693-0.07859413-28.12562347-0.156096-59.85454933 0.17683627-78.4288576l110.6893824-106.51845974c31.71910187 87.03595733 94.44232107 256.2830944 98.76388266 267.5645632 9.13105813 23.1709472 27.24799467 27.23271253 34.58777174 27.92258987 14.72430827 1.3186272 30.1035648-4.7003392 42.5639392-17.14979733 1.74543467-1.85459307 42.79971947-45.57888 60.6568608-67.32531627 19.70081707-23.70036267 18.85375253-44.78857707 18.49571413-53.75808107-0.05239573-2.87194453-3.12737387-53.93382507-8.55033813-143.96725866-5.14679467-85.13661013-11.2912928-187.34333227-14.62060907-245.10641707l191.22389547-191.25991787c46.90187413-46.75669333 53.89780373-95.46076373 53.88797866-120.34549013 0-27.45976107-8.056944-51.87729067-21.51938773-65.26223147-13.3642016-13.44170347-38.84602133-21.798832-66.50881493-21.798832-24.83778773 0-73.43925013 6.92388587-119.9143168 53.32690774L588.5306016 282.63742613c-49.43542827-3.13719787-131.31913387-8.471744-207.48078187-13.43624533-96.88418347-6.32679147-180.5548032-11.77595413-184.3152928-11.86873813-1.3186272-0.073136-2.97018667-0.12444053-4.79858133-0.12444054-17.43142507 0-33.23093867 6.05608-48.27398827 18.53282774-21.6700256 17.93464213-65.48054827 59.10245227-67.48577813 60.9985248-12.30973653 12.370864-18.51208747 27.86582827-17.03518187 42.5639392 0.96495573 9.198736 5.92072427 25.88679573 28.02192427 34.4993536 10.7193056 4.20694507 180.04503573 67.5894784 269.72588907 100.65449706l-106.5970528 109.9623904c-4.5355104 0.05130453-9.7347008 0.35367147-15.7896896 0.05130454-19.6495136 0-45.36056427-0.3580384-68.021744-0.68660267-23.43510933-0.3329312-43.44266027-0.65931413-50.6470816-0.40934187l0.25542933 6.5069024-1.917904-6.5069024-1.53694293-0.02074026c-10.7094816 0-26.92052053 3.27801173-57.7368864 29.08621333l-2.74204587 2.56630187c-12.424352 12.49639573-15.34323413 25.04518827-15.6128544 33.38157653-0.4158912 12.57498987 4.8662592 23.90339627 14.8018112 31.8817472C58.25245333 725.8861664 140.69177173 778.50136533 207.22787627 818.8221088L207.22787627 818.8221088zM235.51396267 775.11965333c-55.68471787-33.71014187-115.425744-71.66216-140.6182944-88.1264448 11.55218027-8.94439787 17.3015264-11.20396693 18.6103296-11.63514026l9.42687573-0.0261984c8.68896853 0 22.6098752 0.2019424 38.4257632 0.4060672l4.3783232 0.07750186c31.45493973 0.45737173 68.73781973 0.98787947 88.26180053 0.58290347 12.09032853-0.25542933 23.37288853-5.15771093 31.77695574-13.84231253l115.4170112-119.0683424c10.77170133-11.0893504 15.14129173-26.7294944 11.71155093-41.80747414-3.4384736-15.0878048-14.16323733-27.2731008-28.68123733-32.60764693-75.16176213-27.62677227-223.61322667-83.12592213-266.98275094-99.51270507 12.93411947-12.0652224 43.6446016-40.54451733 59.60130347-53.75808106 7.9532448-6.56475627 12.77802347-6.56475627 15.088896-6.56475627 0.84160747 0 1.59916267 0.02510613 2.7933504 0.08732587 6.48179627 0.28053547 100.22332373 6.3890112 182.94426987 11.79123626 77.71387307 5.0682016 161.38885973 10.5173632 210.5197376 13.63818774 13.17754133 0.88854507 25.7983776-3.9733472 35.07570666-13.2452192l193.06102294-193.20620374c33.2200224-33.1534368 66.37455147-38.10811307 83.1663104-38.10811306 18.52082027 0 28.6288416 5.58888427 29.7247872 6.55384 8.11370667 8.27962667 17.25022293 62.5572992-32.3696832 112.024384L703.5524608 402.10637867c-9.15616427 9.1725376-13.99731733 21.8446784-13.2452192 34.7951712 3.12191573 54.71867093 9.01753387 152.48485013 14.09665067 236.70125866l0.68660266 11.51069974c3.6873536 61.0454624 8.28399253 137.03354987 8.51213334 142.82546773 0.2128576 5.66529493 0.395152 10.1385856-6.72194347 18.69765653-12.9788736 15.825712-40.53360213 45.60398613-53.36402133 59.37207147-15.825712-42.5017184-70.76269867-190.88987307-97.51620694-264.5419808-5.2723264-14.53219093-17.42705813-25.27878613-32.47884053-28.7849376-14.83346667-3.45484693-30.84256427 0.9398496-41.86860267 11.53580693L361.81729067 739.52981227c-8.74245547 8.43572267-13.69167467 19.7433888-13.96129494 31.8348096-0.38969387 18.87449173-0.31764907 52.59009173-0.239056 83.2492704 0.05130453 22.79216853 0.09824213 44.15436907-0.10370026 52.51695573-0.0261984 1.44415893 0 3.0957184 0.25433813 4.64903467 0 0.0469376-1.37102293 5.43278827-10.39292373 17.07338666l-19.10372374-30.48889173c-24.23632747-38.66372693-57.44216-91.61185707-67.50215253-108.0444864C246.9875488 784.11644693 241.70103147 778.88560107 235.51396267 775.11965333L235.51396267 775.11965333zM235.51396267 775.11965333" fill="#313131" p-id="11181"></path></svg>