<?xml version="1.0" standalone="no"?><!DOCTYPE svg PUBLIC "-//W3C//DTD SVG 1.1//EN" "http://www.w3.org/Graphics/SVG/1.1/DTD/svg11.dtd"><svg t="1604924871062" class="icon" viewBox="0 0 1170 1024" version="1.1" xmlns="http://www.w3.org/2000/svg" p-id="1452" xmlns:xlink="http://www.w3.org/1999/xlink" width="228.515625" height="200"><defs><style type="text/css"></style></defs><path d="M1090.293 235.642c0-28.535-12.717-54.637-37.799-77.578-21.353-19.535-50.424-36.781-86.407-51.261-34.637-13.94-75.473-25.027-121.378-32.955C799.183 65.987 749.771 62 697.846 62c-51.922 0-101.331 3.986-146.858 11.848-45.898 7.928-86.736 19.015-121.383 32.956-35.99 14.485-65.06 31.732-86.398 51.26-18.342 16.777-30.064 35.243-35.046 55.109H91.375a29.373 29.373 0 0 0-27.657 39.274L166.24 538.904 63.718 825.36a29.374 29.374 0 0 0 27.657 39.272h243.25a165.134 165.134 0 0 0 4.556 4.521c19.419 18.472 46.359 34.233 82.36 48.185 33.741 13.073 75.705 23.915 124.723 32.224 48.678 8.255 105.339 12.441 168.411 12.441 62.667 0 117.492-4.866 162.955-14.461 45.821-9.668 84.301-21.977 114.373-36.584 31.836-15.465 55.06-31.675 70.996-49.547 18.364-20.584 27.292-39.761 27.292-58.629V242.551c0-0.836-0.047-1.664-0.116-2.487a93.47 93.47 0 0 0 0.115-4.418z m-707.428-34.234c16.133-14.763 39.24-28.255 68.674-40.103 30.806-12.396 67.63-22.342 109.447-29.566 42.233-7.293 88.281-10.99 136.862-10.99 48.585 0 94.634 3.698 136.866 10.99 41.825 7.223 78.646 17.171 109.443 29.566 29.432 11.844 52.54 25.338 68.685 40.106 12.585 11.512 18.702 22.709 18.702 34.23 0 1.256-0.076 2.549-0.227 3.846-1.176 10.148-7.221 20.089-18.472 30.382-16.079 14.703-39.091 27.955-68.403 39.394-30.787 12.016-67.432 21.585-108.909 28.44-41.902 6.917-87.821 10.425-136.479 10.425-3.042 0-6.075-0.014-9.096-0.041-45.33-0.412-88.353-3.901-128.017-10.389a712.656 712.656 0 0 1-30.443-5.647 623.181 623.181 0 0 1-21.536-4.887c-20.963-5.162-40.193-11.144-57.502-17.902-29.412-11.479-52.703-24.801-69.221-39.595a97.274 97.274 0 0 1-3.724-3.513 80.312 80.312 0 0 1-3.436-3.642c-6.177-6.976-9.974-13.926-11.314-20.738a31.249 31.249 0 0 1-0.611-6.128c-0.001-11.519 6.118-22.716 18.712-34.235z m-77.463 604.474H133.087l92.009-257.081a29.38 29.38 0 0 0 0-19.796l-92.009-257.082h172.314v224.284l-0.001 3.616V802.78l0.001 0.036v3.066z m726.141-3.115c-0.001 0.059-0.514 6.23-12.384 19.536-10.592 11.878-28.365 23.926-52.822 35.809-25.768 12.515-59.692 23.263-100.834 31.945-41.483 8.754-92.227 13.194-150.824 13.194-59.789 0-113.146-3.907-158.591-11.615-45.132-7.649-83.258-17.434-113.317-29.08-28.307-10.97-49.536-23.072-63.097-35.972-13.903-13.225-15.497-20.964-15.52-23.738V494.695c0.011-51.273 0.199-106.52 0.561-165.04 0.423 0.293 0.858 0.582 1.284 0.873 0.401 0.274 0.802 0.548 1.208 0.82 1.377 0.928 2.77 1.852 4.186 2.766 0.112 0.073 0.22 0.146 0.334 0.218 1.525 0.981 3.079 1.95 4.647 2.916 0.418 0.258 0.843 0.513 1.264 0.768 1.263 0.766 2.54 1.527 3.833 2.284 0.377 0.22 0.751 0.442 1.131 0.663a288.81 288.81 0 0 0 4.917 2.784c0.331 0.184 0.669 0.364 1.004 0.548a297.107 297.107 0 0 0 5.608 3.003 345.73 345.73 0 0 0 5.022 2.573l0.23 0.116a349.81 349.81 0 0 0 5.379 2.623c0.496 0.237 0.997 0.472 1.496 0.709 1.462 0.691 2.939 1.376 4.43 2.055 0.419 0.191 0.836 0.384 1.257 0.575a381.87 381.87 0 0 0 5.627 2.485c0.414 0.18 0.836 0.356 1.253 0.534 1.548 0.663 3.109 1.318 4.684 1.968 0.544 0.224 1.088 0.45 1.636 0.673 1.966 0.802 3.944 1.597 5.953 2.382 34.598 13.504 75.426 24.163 121.353 31.682 45.435 7.434 94.76 11.202 146.602 11.202 51.856 0 100.992-3.771 146.054-11.211 5.688-0.94 11.3-1.929 16.833-2.967 38.731-7.262 73.603-16.897 103.861-28.707 2.01-0.785 3.993-1.582 5.961-2.385 0.541-0.22 1.078-0.443 1.617-0.666 1.612-0.667 3.21-1.339 4.793-2.017 0.373-0.16 0.753-0.318 1.124-0.479 1.9-0.822 3.777-1.654 5.635-2.495 0.437-0.198 0.867-0.398 1.301-0.596a322.145 322.145 0 0 0 4.45-2.072 330.77 330.77 0 0 0 6.754-3.286c0.22-0.111 0.437-0.223 0.656-0.335a303.071 303.071 0 0 0 4.629-2.384c0.465-0.245 0.928-0.488 1.39-0.735a322.124 322.124 0 0 0 4.582-2.483c0.175-0.097 0.355-0.192 0.53-0.29a282.64 282.64 0 0 0 4.926-2.811c0.414-0.241 0.821-0.485 1.231-0.726 1.304-0.77 2.592-1.544 3.867-2.324 0.355-0.218 0.712-0.432 1.064-0.652a261.975 261.975 0 0 0 4.592-2.909c0.302-0.196 0.597-0.395 0.899-0.593a233.34 233.34 0 0 0 3.665-2.449c0.398-0.272 0.798-0.543 1.192-0.816 0.293-0.203 0.593-0.401 0.885-0.606v472.881z" p-id="1453"></path><path d="M604.994 293.248c26.149 10.526 57.794 15.865 94.056 15.865 35.363 0 66.717-5.302 93.194-15.761 46.39-18.335 56.129-44.871 56.129-63.902 0-18.856-9.642-45.298-55.581-64.178-26.627-10.941-58.168-16.488-93.743-16.488-36.477 0-68.312 5.587-94.623 16.602-45.211 18.941-54.699 45.292-54.699 64.063 0 18.947 9.588 45.396 55.268 63.798z m21.651-84.177c19.299-8.081 43.659-12.179 72.405-12.179 27.976 0 52.159 4.108 71.874 12.21 9.177 3.772 24.574 11.432 24.574 20.35 0 8.822-15.304 16.187-24.424 19.793-19.762 7.807-43.994 11.764-72.024 11.764-28.802 0-53.212-3.948-72.553-11.735-8.924-3.595-23.895-10.951-23.895-19.822 0-8.97 15.067-16.619 24.043-20.38z" p-id="1454"></path></svg>