<?xml version="1.0" standalone="no"?><!DOCTYPE svg PUBLIC "-//W3C//DTD SVG 1.1//EN" "http://www.w3.org/Graphics/SVG/1.1/DTD/svg11.dtd"><svg t="1604925002945" class="icon" viewBox="0 0 1047 1024" version="1.1" xmlns="http://www.w3.org/2000/svg" p-id="4884" xmlns:xlink="http://www.w3.org/1999/xlink" width="204.4921875" height="200"><defs><style type="text/css"></style></defs><path d="M14.948 33.663z m689.493 372.774h-53.245c0 34.261-12.147 63.539-36.443 87.835-24.295 24.295-53.573 36.443-87.834 36.443-11.222 0-22.123-1.555-32.707-4.664-10.583-3.109-20.389-7.314-29.417-12.616-9.029-5.302-17.28-11.689-24.754-19.163-7.475-7.475-13.862-15.726-19.164-24.754-5.301-9.029-9.507-18.994-12.616-29.896-3.108-10.902-4.663-21.954-4.663-33.155h-53.245c0 49.209 17.28 91.094 51.84 125.653 34.56 34.561 76.295 51.84 125.205 51.84 48.909 0 90.645-17.279 125.204-51.84 34.56-34.56 51.84-76.444 51.84-125.653v-0.03z m335.374 184.04c0-21.804-2.96-43.14-8.879-64.008-5.92-20.867-14.33-40.18-25.232-57.938-10.902-17.758-23.986-33.951-39.254-48.581a229.18 229.18 0 0 0-50.913-36.892c-1.255-69.758-19.322-133.914-54.201-192.471S779.43 85.633 720.256 51.391C661.081 17.15 596.615 0.02 526.858 0c-26.169 0-51.859 2.651-77.071 7.952-25.213 5.302-49.349 12.776-72.408 22.423-23.061 9.646-45.014 21.485-65.861 35.517s-39.842 29.606-56.981 46.728c-17.141 17.12-32.866 35.965-47.177 56.533-14.31 20.568-26.458 42.213-36.442 64.935-9.985 22.721-17.769 46.697-23.35 71.93-5.58 25.232-8.381 50.923-8.4 77.072-37.988 20.548-68.193 49.358-90.615 86.43-22.422 37.07-33.633 77.4-33.633 120.989 0 54.191 16.503 102.464 49.508 144.816s75.358 70.385 127.059 84.098L138.24 990.397h53.245l17.758-53.245 47.654-159.765h-0.927c-1.256 0.618-2.192 0.927-2.811 0.927-51.082 0-94.681-18.217-130.795-54.649-36.114-36.434-54.181-80.192-54.201-131.275 0-29.896 6.696-57.769 20.09-83.619s31.61-47.495 54.65-64.934c9.965 70.375 37.061 133.127 81.287 188.255 44.227 55.129 99.035 95.149 164.428 120.063l-56.981 184.997-16.832 52.318h53.245l17.759-52.318 75.667-218.63c-77.231-15.565-141.538-54.182-192.92-115.848-51.381-61.665-77.071-132.668-77.071-213.009 0-61.048 14.947-117.412 44.844-169.093 29.896-51.68 70.694-92.479 122.395-122.395s107.755-44.863 168.165-44.844c36.752 0 72.259 5.61 106.52 16.831 34.261 11.222 65.094 27.256 92.499 48.104 27.404 20.847 51.381 44.983 71.93 72.408 20.549 27.424 36.583 58.257 48.103 92.498 11.521 34.241 17.28 69.747 17.28 106.52 0 80.341-25.691 151.344-77.072 213.01-51.382 61.666-115.997 100.281-193.846 115.848l76.623 218.63 17.758 52.317H739l-15.875-52.317-56.981-184.997c64.774-24.913 119.425-64.935 163.95-120.063 44.525-55.129 71.771-117.88 81.735-188.256 23.04 17.439 41.257 39.084 54.65 64.935 13.394 25.85 20.09 53.723 20.09 83.619 0 51.082-18.067 94.84-54.201 131.273-36.135 36.434-79.733 54.65-130.796 54.65-0.617 0-1.245-0.31-1.883-0.927h-1.884l47.654 159.765 17.759 53.245h53.244l-53.244-170.977c51.7-13.712 94.053-41.744 127.058-84.097 33.006-42.354 49.509-90.625 49.509-144.817l0.03-0.058z" p-id="4885"></path></svg>