<?xml version="1.0" standalone="no"?><!DOCTYPE svg PUBLIC "-//W3C//DTD SVG 1.1//EN" "http://www.w3.org/Graphics/SVG/1.1/DTD/svg11.dtd"><svg t="1604577135608" class="icon" viewBox="0 0 1237 1024" version="1.1" xmlns="http://www.w3.org/2000/svg" p-id="11042" xmlns:xlink="http://www.w3.org/1999/xlink" width="241.6015625" height="200"><defs><style type="text/css"></style></defs><path d="M1071.80344 100.638821c-2.515971-52.835381-47.80344-93.090909-100.638821-93.090909H264.176904C211.341523 7.547912 166.054054 47.80344 163.538084 100.638821L115.734644 918.329238c-2.515971 25.159705 7.547912 50.31941 25.159705 67.931204 17.611794 17.611794 40.255528 27.675676 67.931204 27.675676H1031.547912c25.159705 0 50.31941-10.063882 67.931203-27.675676 17.611794-17.611794 25.159705-42.771499 25.159706-67.931204L1071.80344 100.638821z m-7.547912 852.914005c-7.547912 7.547912-20.127764 12.579853-32.707616 12.579852H208.825553c-12.579853 0-22.643735-5.031941-32.707617-12.579852-7.547912-7.547912-12.579853-20.127764-12.579852-32.707617L211.341523 103.154791c2.515971-25.159705 25.159705-47.80344 52.835381-47.80344h706.987715c27.675676 0 50.31941 20.127764 52.835381 47.80344l50.31941 817.690418c2.515971 12.579853-2.515971 25.159705-10.063882 32.707617zM820.206388 155.990172c-12.579853 0-25.159705 10.063882-25.159705 25.159705 0 98.12285-77.995086 176.117936-176.117936 176.117936s-176.117936-77.995086-176.117936-176.117936c0-12.579853-10.063882-25.159705-25.159705-25.159705-12.579853 0-25.159705 10.063882-25.159706 25.159705 0 123.282555 100.638821 223.921376 223.921376 223.921376s223.921376-100.638821 223.921376-223.921376c2.515971-15.095823-7.547912-25.159705-20.127764-25.159705z" p-id="11043"></path></svg>