<?xml version="1.0" standalone="no"?><!DOCTYPE svg PUBLIC "-//W3C//DTD SVG 1.1//EN" "http://www.w3.org/Graphics/SVG/1.1/DTD/svg11.dtd"><svg t="1604576856968" class="icon" viewBox="0 0 1024 1024" version="1.1" xmlns="http://www.w3.org/2000/svg" p-id="9326" xmlns:xlink="http://www.w3.org/1999/xlink" width="200" height="200"><defs><style type="text/css"></style></defs><path d="M219.428571 329.142857a168.228571 146.285714 90 1 0 292.571429 0 168.228571 146.285714 90 1 0-292.571429 0Z"  p-id="9327"></path><path d="M365.714286 482.742857a62.551771 62.551771 0 0 1 62.405485 58.382629l19.529143 292.893257a82.110171 82.110171 0 1 1-163.869257 0l19.529143-292.893257A62.551771 62.551771 0 0 1 365.714286 482.742857z" p-id="9328"></path><path d="M365.714286 138.971429c93.637486 0 168.228571 85.767314 168.228571 190.171428 0 84.216686-48.5376 156.320914-116.472686 181.0432a62.171429 62.171429 0 0 1 10.6496 30.939429l19.529143 292.893257a82.110171 82.110171 0 1 1-163.869257 0l19.529143-292.893257a62.303086 62.303086 0 0 1 10.634971-30.939429C246.023314 485.463771 197.485714 413.359543 197.485714 329.142857c0-104.404114 74.591086-190.171429 168.228572-190.171428z m299.885714 7.314285a21.942857 21.942857 0 0 1 21.942857 21.942857v716.8a21.942857 21.942857 0 0 1-43.885714 0v-716.8a21.942857 21.942857 0 0 1 21.942857-21.942857z m146.285714 0a21.942857 21.942857 0 0 1 21.942857 21.942857v716.8a21.942857 21.942857 0 0 1-43.885714 0v-716.8a21.942857 21.942857 0 0 1 21.942857-21.942857zM365.714286 526.628571c-9.172114 0-16.866743 6.641371-18.388115 15.491658l-0.234057 1.930971-19.529143 292.893257-0.073142 2.545372A38.224457 38.224457 0 0 0 365.714286 877.714286l2.545371-0.087772a38.224457 38.224457 0 0 0 35.693714-38.268343l-0.087771-2.413714-19.529143-292.893257A18.666057 18.666057 0 0 0 365.714286 526.628571z m0-343.771428c-67.935086 0-124.342857 64.863086-124.342857 146.285714s56.407771 146.285714 124.342857 146.285714 124.342857-64.863086 124.342857-146.285714-56.407771-146.285714-124.342857-146.285714z" p-id="9329"></path></svg>