<?xml version="1.0" standalone="no"?><!DOCTYPE svg PUBLIC "-//W3C//DTD SVG 1.1//EN" "http://www.w3.org/Graphics/SVG/1.1/DTD/svg11.dtd"><svg t="1604925960185" class="icon" viewBox="0 0 1024 1024" version="1.1" xmlns="http://www.w3.org/2000/svg" p-id="4573" xmlns:xlink="http://www.w3.org/1999/xlink" width="200" height="200"><defs><style type="text/css"></style></defs><path d="M461.63968 596.18816L260.24448 388.34176c-15.00672-15.49312-14.61248-40.30976 0.88064-55.31648a38.90688 38.90688 0 0 1 27.22304-11.02848c10.68544 0 20.66432 4.224 28.09344 11.89888l201.39008 207.8464-56.192 54.44608zM288.34304 342.4768c-4.86912 0-9.47712 1.86368-12.96896 5.25312a18.6624 18.6624 0 0 0-0.42496 26.35776l187.14112 193.14176 26.7776-25.94816-187.136-193.13664a18.4832 18.4832 0 0 0-13.3888-5.66784z" p-id="4574"></path><path d="M570.7776 708.82304l-123.392-127.34464 56.20224-54.44608 81.90464 84.5312-14.71488 14.24896-67.65056-69.82144-26.78272 25.94816 109.14816 112.63488z" p-id="4575"></path><path d="M305.83296 747.16672l-14.24896-14.70976 155.8016-150.97344-187.15136-193.14176c-15.00672-15.488-14.61248-40.30464 0.88064-55.31648a38.656 38.656 0 0 1 27.83232-11.02336 38.84032 38.84032 0 0 1 27.48928 11.89376l187.15136 193.13664 67.4304-65.34656 14.24896 14.70464-82.13504 79.60064L301.7216 348.14464a18.51904 18.51904 0 0 0-13.09696-5.66272c-4.992-0.15872-9.68704 1.78688-13.2608 5.25312a18.6624 18.6624 0 0 0-0.42496 26.35776l310.54848 320.49664-14.70976 14.24896-109.14304-112.64512-155.8016 150.97344z" p-id="4576"></path><path d="M622.61248 1000.63232c-56.61184 0.00512-112.50176-22.43072-153.14432-64.36352L80.91648 535.296C-0.57856 451.19488 1.54624 316.46208 85.65248 234.96192c84.10112-81.50016 218.83392-79.3856 300.33408 4.7104l199.50592 205.89056-14.70976 14.24896-199.50592-205.88544c-73.63072-75.98592-195.37408-77.89568-271.37536-4.25472-75.99104 73.64096-77.91104 195.3792-4.2752 271.37536l388.55168 400.96768c54.82496 56.56576 140.38016 73.87136 212.92032 43.04896l8.00768 18.85184a210.8672 210.8672 0 0 1-82.49344 16.7168z" p-id="4577"></path><path d="M780.288 1004.26752c-56.72448 0-110.05952-22.08768-150.17984-62.20288s-62.208-93.45536-62.20288-150.18496V233.53344c0-117.10976 95.27296-212.38784 212.38272-212.38784 117.12512 0 212.40832 95.27808 212.40832 212.38784v558.34624c0.00512 117.10976-95.2832 212.38784-212.40832 212.38784zM588.38528 542.208v249.67168c-0.00512 51.26144 19.95264 99.456 56.21248 135.7056 36.24448 36.24448 84.43904 56.20736 135.69536 56.20736 105.8304 0 191.92832-86.08768 191.92832-191.90784V542.208h-95.02208v268.92288c0 21.57568-17.55648 39.12704-39.13216 39.12704s-39.12704-17.55136-39.12704-39.12704V542.208h-210.55488z m231.04-0.01024v268.93312a18.66752 18.66752 0 0 0 18.64704 18.64704 18.67264 18.67264 0 0 0 18.65216-18.64704v-268.93312h-37.2992z m57.75872-20.46976h95.03744V233.53344c0-105.81504-86.09792-191.90784-191.92832-191.90784-105.81504 0-191.90272 86.08768-191.90272 191.90784V521.728h210.56V252.78464c0-21.57056 17.55136-39.1168 39.12704-39.1168 21.57056 0 39.1168 17.54624 39.1168 39.1168V521.728z m-57.75872-0.01024h37.27872V252.78464a18.65728 18.65728 0 0 0-18.6368-18.6368 18.6624 18.6624 0 0 0-18.64704 18.6368v268.93312z" p-id="4578"></path></svg>