<?xml version="1.0" standalone="no"?><!DOCTYPE svg PUBLIC "-//W3C//DTD SVG 1.1//EN" "http://www.w3.org/Graphics/SVG/1.1/DTD/svg11.dtd"><svg t="1604927815843" class="icon" viewBox="0 0 1024 1024" version="1.1" xmlns="http://www.w3.org/2000/svg" p-id="11367" xmlns:xlink="http://www.w3.org/1999/xlink" width="200" height="200"><defs><style type="text/css"></style></defs><path d="M361.5 926.6H933V945H361.5zM905.7 223.8L538.6 63.3c-16.6-7.3-35.7-7.3-52.4 0L118.9 223.9c-22 9.6-36.2 31.4-36.2 55.4V945h128.7v-18.4H101V279.3c0-16.7 9.9-31.8 25.2-38.5L493.6 80.1c12-5.2 25.7-5.2 37.6 0l367.2 160.5c15.4 6.7 25.4 22 25.4 38.8v203.8h18.4V279.4c-0.1-24.1-14.3-45.9-36.5-55.6z" fill="" p-id="11368"></path><path d="M222.744 255.824l277.3-128.67 7.745 16.691-277.3 128.67zM174.2 285.6c0 6.1 4.9 11 11 11s11-4.9 11-11-4.9-11-11-11c-6-0.1-11 4.9-11 11z" fill="" p-id="11369"></path><path d="M382.9 522.1h222.2v276.7H382.9zM623.5 522.1h229.8v276.7H623.5z" fill="#FFFFFF" p-id="11370"></path><path d="M871.7 503.8H364.5V595h-78.1v282h655.7V595h-70.5v-91.2z m-18.4 18.3v276.7H623.5V522.1h229.8z m-248.2 0v276.7H382.9V522.1h222.2z m9.2-9.1z m309.5 100.4v245.1h-619V613.4h59.8v203.8h507.1V613.4h52.1z" fill="" p-id="11371"></path></svg>