<?xml version="1.0" standalone="no"?><!DOCTYPE svg PUBLIC "-//W3C//DTD SVG 1.1//EN" "http://www.w3.org/Graphics/SVG/1.1/DTD/svg11.dtd"><svg t="1604928024440" class="icon" viewBox="0 0 1024 1024" version="1.1" xmlns="http://www.w3.org/2000/svg" p-id="18073" xmlns:xlink="http://www.w3.org/1999/xlink" width="200" height="200"><defs><style type="text/css"></style></defs><path d="M981.333333 697.813333a183.68 183.68 0 0 0 18.346667-141.226666 189.44 189.44 0 0 0-153.6-136.106667A186.88 186.88 0 0 0 603.52 178.346667a189.226667 189.226667 0 0 0-136.106667-153.6 184.533333 184.533333 0 0 0-226.986666 130.346666L118.613333 617.173333a205.866667 205.866667 0 0 0-40.106666 31.146667 210.133333 210.133333 0 0 0 297.173333 296.96 205.866667 205.866667 0 0 0 31.146667-39.893333l462.08-121.813334A182.186667 182.186667 0 0 0 981.333333 697.813333z m-207.146666-448a144.426667 144.426667 0 0 1 20.266666 178.346667l-497.92 341.333333-42.666666-42.666666 341.333333-497.92a144.426667 144.426667 0 0 1 178.56 21.333333zM281.6 165.973333a139.946667 139.946667 0 0 1 65.92-85.333333 141.226667 141.226667 0 0 1 108.586667-14.08 143.573333 143.573333 0 0 1 64 37.12 145.706667 145.706667 0 0 1 42.666666 99.413333L223.786667 697.173333l-64-64z m-170.666667 747.946667a166.613333 166.613333 0 0 1-1.28-234.666667A162.133333 162.133333 0 0 1 128 661.333333l234.666667 234.666667a162.133333 162.133333 0 0 1-16.426667 19.413333 166.613333 166.613333 0 0 1-236.16-1.493333z m747.946667-170.666667l-466.986667 122.026667-64-64 493.226667-339.626667a145.706667 145.706667 0 0 1 136.96 106.666667 141.44 141.44 0 0 1-14.08 108.586667 139.946667 139.946667 0 0 1-85.973333 65.493333z" p-id="18074"></path></svg>