<?xml version="1.0" standalone="no"?><!DOCTYPE svg PUBLIC "-//W3C//DTD SVG 1.1//EN" "http://www.w3.org/Graphics/SVG/1.1/DTD/svg11.dtd"><svg t="1604926137991" class="icon" viewBox="0 0 1024 1024" version="1.1" xmlns="http://www.w3.org/2000/svg" p-id="10541" xmlns:xlink="http://www.w3.org/1999/xlink" width="200" height="200"><defs><style type="text/css"></style></defs><path d="M641.561 479.185H215.513c-83.51 0-151.455-67.927-151.455-151.42 0-20.033 16.237-36.275 36.276-36.275 20.039 0 36.275 16.243 36.275 36.275 0 43.49 35.402 78.868 78.904 78.868H641.56c43.503 0 78.903-35.378 78.903-78.868 0-20.033 16.236-36.275 36.276-36.275 20.04 0 36.275 16.243 36.275 36.275 0 83.492-67.944 151.42-151.454 151.42z" p-id="10542"></path><path d="M640.71 902.162H216.364c-83.25 0-150.982-67.71-150.982-150.948V326.838c0-83.244 67.732-150.97 150.982-150.97h44.79c20.039 0 36.275 16.242 36.275 36.275s-16.236 36.275-36.276 36.275h-44.789c-43.243 0-78.432 35.177-78.432 78.42v424.376c0 43.23 35.19 78.397 78.432 78.397h424.347c43.243 0 78.432-35.166 78.432-78.397V326.838c0-43.242-35.19-78.42-78.432-78.42h-56.94c-20.038 0-36.276-16.243-36.276-36.275s16.238-36.276 36.275-36.276h56.94c83.251 0 150.984 67.728 150.984 150.97v424.377c-0.001 83.239-67.734 150.948-150.984 150.948z" p-id="10543"></path><path d="M766.47 754.085c-20.037 0-36.273-16.237-36.273-36.276 0-20.032 16.236-36.275 36.273-36.275 66.672 0 120.92-54.243 120.92-120.918 0-66.677-54.248-120.919-120.92-120.919-20.037 0-36.273-16.243-36.273-36.275s16.236-36.275 36.273-36.275c106.678 0 193.47 86.792 193.47 193.47 0 106.675-86.792 193.468-193.47 193.468zM366.744 350.29a24.14 24.14 0 0 1-10.545-2.427c-12.008-5.833-17.028-20.299-11.206-32.314 6.579-13.786 19.85-55.063 2.208-79.329-39.948-54.92-1.937-110.858-0.296-113.207 7.63-10.976 22.684-13.675 33.666-6.04 10.91 7.593 13.639 22.566 6.141 33.512-2.15 3.213-19.554 30.956-0.402 57.29 38.377 52.76 3.696 125.794 2.208 128.876-4.179 8.62-12.8 13.639-21.774 13.639zM487.663 350.29c-3.543 0-7.145-0.78-10.545-2.427-12.01-5.833-17.029-20.299-11.208-32.314 6.579-13.786 19.852-55.063 2.208-79.329-39.947-54.92-1.937-110.858-0.295-113.207 7.618-10.976 22.685-13.675 33.666-6.04 10.912 7.593 13.639 22.566 6.141 33.512-2.151 3.213-19.555 30.956-0.402 57.29 38.377 52.76 3.696 125.794 2.208 128.876-4.18 8.62-12.8 13.639-21.773 13.639z" p-id="10544"></path></svg>