<?xml version="1.0" standalone="no"?><!DOCTYPE svg PUBLIC "-//W3C//DTD SVG 1.1//EN" "http://www.w3.org/Graphics/SVG/1.1/DTD/svg11.dtd"><svg t="1604928100369" class="icon" viewBox="0 0 1024 1024" version="1.1" xmlns="http://www.w3.org/2000/svg" p-id="20085" xmlns:xlink="http://www.w3.org/1999/xlink" width="200" height="200"><defs><style type="text/css"></style></defs><path d="M179.328 492.8h699.3024c6.7328-4.2624 10.9696-13.9648 10.9696-19.2C889.6 270.3616 726.272 121.6 512 121.6c-212.6976 0-375.168 146.56-377.5744 347.4816 9.344 12.6336 30.3744 23.7184 44.9024 23.7184z m-77.2096-2.1248A26.9696 26.9696 0 0 1 96 473.6C96 248.32 277.2736 83.2 512 83.2S928 248.32 928 473.6c0 20.0192-12.1856 46.336-38.0928 56.32l-3.328 1.28H179.328c-26.24 0-57.5232-16.128-74.2528-37.2992a30.848 30.848 0 0 1-2.944-3.2256zM140.8 806.4c0 28.2112 22.976 51.2 51.2256 51.2h639.9488A51.1744 51.1744 0 0 0 883.2 806.4c0-28.2112-22.976-51.2-51.2256-51.2H192.0256A51.1744 51.1744 0 0 0 140.8 806.4z m-38.4 0c0-49.4848 40.064-89.6 89.6256-89.6h639.9488A89.6768 89.6768 0 0 1 921.6 806.4c0 49.4848-40.064 89.6-89.6256 89.6H192.0256A89.6768 89.6768 0 0 1 102.4 806.4zM112.8448 608.512c2.2784 2.368 6.2848 6.2336 11.8272 11.1104a298.1504 298.1504 0 0 0 30.5024 23.5136C187.8144 665.088 221.7088 678.4 255.6672 678.4c34.432 0 53.4784-10.9184 80.2944-37.5808l2.5472-2.5344C357.0944 619.776 366.2464 614.4 384.1152 614.4c19.1104 0 29.5552 6.1056 51.5456 26.7904l1.2544 1.1776c27.648 25.984 44.7104 36.032 74.752 36.032 31.0528 0 47.296-10.5344 73.088-38.08C603.8912 619.8784 612.3392 614.4 629.7344 614.4c15.8848 0 22.6176 4.5696 36.9152 22.144l2.2656 2.7776C691.1616 666.6496 709.376 678.4 744.1664 678.4c12.7488 0 26.2272-1.984 40.3456-5.696 22.208-5.8368 45.44-15.7696 69.0432-28.6464a477.9776 477.9776 0 0 0 37.6832-22.9248c7.0144-4.736 12.1728-8.448 15.0784-10.6624l-23.2576-30.5408-3.328 2.4448a439.936 439.936 0 0 1-44.544 27.968c-21.1072 11.52-41.6128 20.2752-60.4288 25.216-11.136 2.944-21.376 4.4416-30.592 4.4416-20.992 0-29.7984-5.6704-45.4784-24.9216l-2.2528-2.7648C675.584 586.6496 659.8656 576 629.7344 576c-30.9888 0-47.2064 10.5216-72.96 38.0288C537.6 634.5088 529.1136 640 511.6416 640c-17.5104 0-27.3664-5.7984-48.4352-25.6128l-1.2544-1.1776C433.4208 586.368 415.6928 576 384.128 576c-30.4896 0-47.5648 10.0608-72.6912 35.0464l-2.5472 2.5344C288.576 633.7792 277.7344 640 255.6672 640c-25.0624 0-52.1856-10.6752-79.0784-28.736a260.0576 260.0576 0 0 1-26.56-20.48c-4.6848-4.1216-7.936-7.2576-9.4976-8.896l-27.6864 26.624z" fill="#4A4A4A" p-id="20086"></path></svg>