<?xml version="1.0" standalone="no"?><!DOCTYPE svg PUBLIC "-//W3C//DTD SVG 1.1//EN" "http://www.w3.org/Graphics/SVG/1.1/DTD/svg11.dtd"><svg t="1604926029028" class="icon" viewBox="0 0 1024 1024" version="1.1" xmlns="http://www.w3.org/2000/svg" p-id="7958" xmlns:xlink="http://www.w3.org/1999/xlink" width="200" height="200"><defs><style type="text/css"></style></defs><path d="M899.072 720.896l-296.96-369.152c0.512-5.632 1.024-36.864 1.024-42.496a245.0944 245.0944 0 1 0-245.248 245.248h1.536a61.8496 61.8496 0 0 1 45.568 14.336l349.184 281.6a27.4944 27.4944 0 0 0 16.896 6.144c7.168 0 10.24-7.68 15.872-13.312l21.504-21.504a148.9408 148.9408 0 0 1-5.632 35.84c-7.168 18.944-23.552 34.304-49.152 45.056-30.208 12.8-76.8-9.216-131.072-34.816-99.84-46.592-236.544-111.104-382.976 3.584a27.5456 27.5456 0 0 0-4.608 38.4c9.216 11.776 21.504-1.536 33.28-10.752 119.808-94.208 229.376-42.496 326.144 2.56 47.616 22.016 92.672 43.52 134.656 43.52a113.8688 113.8688 0 0 0 40.96-7.68c39.936-16.896 56.32-32.256 69.12-66.048 12.8-35.328 6.656-59.904 0-81.408l58.368-58.368c7.68-8.704-2.048-15.36 1.536-10.752zM153.6 308.736a204.032 204.032 0 1 1 204.288 204.288A204.0832 204.0832 0 0 1 153.6 308.736z m610.816 493.568l-321.024-264.192A247.6544 247.6544 0 0 0 587.264 394.24l259.072 326.144-38.4 38.4a23.6544 23.6544 0 0 0-8.704 8.704z m-162.304-278.528a22.784 22.784 0 0 0-32.256 32.256l49.152 49.152a22.1184 22.1184 0 0 0 15.872 6.656 21.2992 21.2992 0 0 0 15.872-6.656 23.1936 23.1936 0 0 0 0-32.256z"  p-id="7959"></path></svg>