<?xml version="1.0" standalone="no"?><!DOCTYPE svg PUBLIC "-//W3C//DTD SVG 1.1//EN" "http://www.w3.org/Graphics/SVG/1.1/DTD/svg11.dtd"><svg t="1604927913856" class="icon" viewBox="0 0 1024 1024" version="1.1" xmlns="http://www.w3.org/2000/svg" p-id="15624" xmlns:xlink="http://www.w3.org/1999/xlink" width="200" height="200"><defs><style type="text/css"></style></defs><path d="M399.104 163.381333c8.362667-7.765333 21.504-7.765333 29.269333 0 8.362667 8.362667 8.362667 21.504 0 29.866667-10.752 10.752-16.128 25.685333-16.128 40.021333 0 14.336 5.376 28.682667 16.128 40.021334 19.114667 19.712 28.074667 44.202667 28.074667 69.290666 0 25.088-9.557333 50.773333-28.074667 69.888-7.765333 7.765333-20.906667 7.765333-29.269333 0-7.765333-8.362667-7.765333-21.504 0-29.866666 10.752-10.752 16.128-25.685333 16.128-40.021334 0-14.336-5.376-29.269333-16.128-40.021333-18.517333-19.114667-28.074667-44.202667-28.074667-69.290667 0-25.088 9.557333-50.773333 28.074667-69.888zM960 506.250667v1.194666c0 248.490667-203.093333 452.778667-448 452.778667-246.101333 0-448-204.885333-448-453.973333 0-19.114667 15.530667-34.645333 34.645333-34.645334h826.709334c19.114667 0 34.645333 15.530667 34.645333 34.645334zM848.896 680.672H174.506667c64.512 126.037333 195.328 209.066667 337.493333 209.066667 142.165333 0 272.981333-82.432 336.896-209.066667z m18.517333-41.813333c11.349333-31.061333 19.114667-63.914667 22.101334-98.56H134.485333c2.986667 34.645333 10.752 67.498667 22.101334 98.56h710.826666zM497.066667 99.466667c-7.765333-7.765333-7.765333-22.101333 0-29.866667 8.362667-7.765333 21.504-7.765333 29.269333 0l1.194667 1.194667c17.92 19.114667 27.477333 43.605333 27.477333 68.693333 0 25.088-9.557333 50.176-28.672 69.290667l-0.597333 1.194666c-10.752 10.154667-15.530667 24.490667-15.530667 38.826667 0 14.933333 5.376 29.269333 16.128 40.021333 7.765333 8.362667 7.765333 21.504 0 29.866667-8.362667 8.362667-20.906667 8.362667-29.269333 0-18.517333-19.114667-28.074667-44.8-28.074667-69.290667 0-24.490667 9.557333-48.981333 27.477333-68.096l0.597334-1.194666v-1.194667c10.752-10.154667 16.128-25.088 16.128-39.424 0-14.336-5.376-28.672-15.530667-38.826667l-0.597333-1.194666z m97.962666 63.914666c7.765333-7.765333 21.504-7.765333 29.269334 0 7.765333 8.362667 7.765333 21.504 0 29.866667-10.752 10.752-16.128 25.685333-16.128 40.021333 0 14.336 5.376 28.682667 16.128 40.021334l1.194666 1.194666c18.517333 19.114667 27.477333 43.605333 27.477334 68.096 0 25.088-9.557333 50.773333-28.074667 69.888-8.362667 7.765333-21.504 7.765333-29.269333 0-8.362667-8.362667-8.362667-22.101333 0.597333-29.866666 10.154667-10.752 16.128-25.685333 16.128-40.021334 0-13.728-5.376-28.074667-15.530667-38.826666l-1.194666-0.597334c-18.517333-19.114667-28.074667-44.202667-28.074667-69.290666 0-25.088 8.96-51.370667 27.477333-70.485334z m0 0" p-id="15625"></path></svg>