<?xml version="1.0" standalone="no"?><!DOCTYPE svg PUBLIC "-//W3C//DTD SVG 1.1//EN" "http://www.w3.org/Graphics/SVG/1.1/DTD/svg11.dtd"><svg t="1604926122078" class="icon" viewBox="0 0 1024 1024" version="1.1" xmlns="http://www.w3.org/2000/svg" p-id="10258" xmlns:xlink="http://www.w3.org/1999/xlink" width="200" height="200"><defs><style type="text/css"></style></defs><path d="M928.130956 401.098714c-9.174992-13.701049-32.952149-30.003044-32.952149-30.003044l-158.923973-111.4311-60.088008-43.192096V35.184457C676.187306 0 676.187306 0 641.002849 0H109.754412C74.610914 0 74.610914 0 74.610914 35.184457v936.688889C74.610914 1023.994675 74.610914 1023.994675 109.754412 1023.994675h531.227957c5.75485 0 10.506185-0.04096 14.520245-0.286718 4.055019 0.245759 8.785874 0.286719 14.561204 0.286718h230.931279a267.672208 267.672208 0 0 0 16.609194-0.409598 20.152215 20.152215 0 0 0 16.342955-11.161542c2.170869-7.557081 2.211828-19.926936 2.211828-40.550189V430.405442c0-6.717405 0.04096-17.24407-8.028118-29.306728z m-293.026316-147.127555V955.591831c0 27.545457 0.225279 27.545457-9.953228 27.545457H125.42153c-9.932748 0-9.932748 0-9.932748-27.545457V52.817645c0-11.939778 0-11.939778 9.932748-11.939778h499.729882c9.953228 0 9.953228 0 9.953228 11.939778v201.153514zM895.178807 955.591831c0 27.545457 0.225279 27.545457-9.932748 27.545457h-199.412723c-6.881244 0-8.990673-0.204799-9.64603-9.338832v-4.587496c-0.102399-3.604461-0.102399-7.905239-0.102399-13.619129V271.604348c0-1.699831 0.04096-2.744306 0.081919-3.9731l200.641517 140.45111s13.41433 7.864279 15.810478 13.37337c2.662386 6.062048 2.559987 21.708687 2.559986 21.708688V955.591831z" p-id="10259"></path><path d="M536.002435 683.577885H203.142726a20.438934 20.438934 0 0 0 0 40.857388h332.839229a20.418454 20.418454 0 1 0 0.02048-40.857388zM536.002435 491.578884H203.142726a20.418454 20.418454 0 1 0 0 40.877867h332.839229a20.418454 20.418454 0 1 0 0.02048-40.877867zM536.002435 299.579882h-166.419614a20.438934 20.438934 0 1 0 0 40.877868h166.419614a20.418454 20.418454 0 1 0 0-40.877868z" p-id="10260"></path></svg>