<?xml version="1.0" standalone="no"?><!DOCTYPE svg PUBLIC "-//W3C//DTD SVG 1.1//EN" "http://www.w3.org/Graphics/SVG/1.1/DTD/svg11.dtd"><svg t="1604926005297" class="icon" viewBox="0 0 1024 1024" version="1.1" xmlns="http://www.w3.org/2000/svg" p-id="6587" xmlns:xlink="http://www.w3.org/1999/xlink" width="200" height="200"><defs><style type="text/css"></style></defs><path d="M254.722402 773.116019c-60.974723 0-109.781312-41.295522-149.199067-126.22175-69.066005-148.83477-0.210801-218.764446 69.711711-251.223718 18.500353-8.589632 37.874609-12.9438 57.57837-12.9438 28.076452 0 52.103682 8.531304 71.40733 15.384385 11.851932 4.200672 22.084994 7.838525 28.809139 7.838525 1.51347 0 2.728134-0.199545 3.608178-0.586354 15.772218-6.91141 32.089859-27.436886 44.00626-42.433438 5.837962-7.346315 10.878768-13.682627 15.249309-17.743106 15.70775-14.622022 33.550117-17.191544 53.370535-7.462972 20.958334 10.30367 30.135344 27.29567 25.840528 47.854914-1.936095 9.271154-8.525164 16.957207-14.340613 23.728424-2.811022 3.273557-7.346315 8.55484-8.267291 11.207249 2.605338 2.241041 10.8143 4.951779 18.658965 6.196119L716.830085 313.502134l44.387953-37.786605 144.305617-24.831548 41.583071 23.481807-22.172999 56.891731-33.022091-6.277984-97.899704 45.437865-42.580794-6.582929-251.451916 128.087237c-5.069459 3.895727-11.072173 11.113105-9.552563 14.386662 2.481518 5.350868 9.458419 7.686053 21.563108 11.336186 5.316076 1.607614 11.342326 3.414773 17.414625 5.91471l1.337461 0.539282c9.153474 3.696182 30.581506 12.345166 27.894304 42.023092-2.575662 28.41005-25.694195 41.213657-39.664372 42.609447-1.965771 0.187265-5.943362 0.340761-11.248182 0.51677-16.880459 0.562818-56.428174 1.865487-71.63655 8.930393-3.691065 2.065032-10.280134 17.21508-15.096836 28.293393-14.304797 32.893154-35.932374 82.625836-88.75237 107.141182C303.956733 766.731612 278.603299 773.116019 254.722402 773.116019zM232.813417 406.760121c-16.411785 0-31.936363 3.508917-47.461965 10.714016-87.244017 40.497343-106.765629 114.275673-58.023508 219.303728 35.069727 75.561953 76.740802 112.303762 127.395482 112.303762 20.313651 0 42.357713-5.655813 67.400063-17.273409 44.540426-20.665669 63.204507-63.59234 76.828806-94.924953 8.848529-20.348444 15.238053-35.041074 27.019377-40.509622 19.638269-9.117658 59.531861-10.432607 80.959893-11.147898 4.564969-0.152473 7.992021-0.246617 9.66922-0.410346 3.444449-0.340761 16.652262-4.89345 18.095124-20.852934 1.032516-11.406794-3.473101-13.753235-12.94994-17.579377l-1.466398-0.598634c-4.993734-2.041496-10.197246-3.614317-15.225773-5.127787-14.398942-4.341888-29.284977-8.836249-36.431747-24.232914-8.719592-18.799158 7.228635-36.835953 18.024515-44.534286l1.51961-0.915859 259.273045-132.065851 43.049468 6.653537 98.31005-45.626153 22.672372 4.307096 4.007267-20.137643-15.272845-8.625448-129.237433 23.493064-42.580794 35.662221L475.05353 451.376271l-3.279696-0.352017c-9.200546-0.950651-39.499619-5.655813-43.11496-25.875321-2.270716-12.685927 6.30152-22.672372 13.864776-31.496341 3.737114-4.341888 8.384971-9.763364 9.05319-12.978593 1.408069-6.747681 0.974188-14.551414-12.914124-21.38096-4.535293-2.229784-8.455579-3.309372-11.987009-3.309372-3.045359 0-7.856945 0.704035-14.416338 6.80601-3.051499 2.828418-7.786337 8.789177-12.797467 15.09172-13.483082 16.968463-31.942503 40.192398-53.17713 49.498344-12.755512 5.573949-29.924543 0.528026-50.096978-6.618744C277.69972 414.20058 256.747525 406.760121 232.813417 406.760121z" p-id="6588"></path></svg>