<?xml version="1.0" standalone="no"?><!DOCTYPE svg PUBLIC "-//W3C//DTD SVG 1.1//EN" "http://www.w3.org/Graphics/SVG/1.1/DTD/svg11.dtd"><svg t="1604928185450" class="icon" viewBox="0 0 1024 1024" version="1.1" xmlns="http://www.w3.org/2000/svg" p-id="21731" xmlns:xlink="http://www.w3.org/1999/xlink" width="200" height="200"><defs><style type="text/css"></style></defs><path d="M919.616969 30.182338h-0.18416c0.102311-1.115189 0.225084-2.220147 0.214853-3.376261-0.163697-14.916933-9.351219-26.918005-20.533803-26.805463L734.475113 1.801286c-11.172353 0.122773-20.093866 12.318236-19.930169 27.2454 0.173929 14.916933 9.36145 26.918005 20.544035 26.795232l130.026958-1.422121c-11.868068 285.222405-45.855758 611.706808-353.566105 606.008089-341.217176-6.312584-344.961756-320.683373-357.034446-605.578384h465.177097c11.88853 0 21.526219-12.082921 21.526219-26.979391 0-14.906702-9.637689-26.979392-21.526219-26.979392H121.550805c-11.898761 0-21.53645 12.07269-21.53645 26.979392 0 1.718824 0.163697 3.386492 0.409243 5.013235h-0.409243c9.566072 332.878836 32.074476 671.036915 384.648165 687.703366v249.106647H255.977134c-12.164769 0-22.017312 12.154538-22.017312 27.14309 0 15.009013 9.852542 27.143089 22.017312 27.143089h509.3038c12.154538 0 22.007081-12.144307 22.00708-27.143089s-9.852542-27.143089-22.00708-27.14309H537.260568V720.627636c332.408205-16.339055 374.990014-357.44369 382.356401-690.445298z" fill="" p-id="21732"></path></svg>