<?xml version="1.0" standalone="no"?><!DOCTYPE svg PUBLIC "-//W3C//DTD SVG 1.1//EN" "http://www.w3.org/Graphics/SVG/1.1/DTD/svg11.dtd"><svg t="1604925784906" class="icon" viewBox="0 0 1024 1024" version="1.1" xmlns="http://www.w3.org/2000/svg" p-id="1854" xmlns:xlink="http://www.w3.org/1999/xlink" width="200" height="200"><defs><style type="text/css"></style></defs><path d="M739.71 190.87a64 64 0 0 0-128 0 64 64 0 0 1 128 0z" p-id="1855"></path><path d="M675.71 94.87a96 96 0 1 0 96 96 96 96 0 0 0-96-96z m0 128a32 32 0 1 1 32-32 32 32 0 0 1-32 32zM763.69 597.08a180.61 180.61 0 1 0 180.6 180.61 180.61 180.61 0 0 0-180.6-180.61z m82.45 263.06a116.61 116.61 0 1 1 34.15-82.45 115.84 115.84 0 0 1-34.15 82.45z"  p-id="1856"></path><path d="M763.69 597.08a180.61 180.61 0 1 0 180.6 180.61 180.61 180.61 0 0 0-180.6-180.61z m0 297.21a116.61 116.61 0 1 1 82.45-34.15 115.84 115.84 0 0 1-82.45 34.15zM243.34 597.49a180.61 180.61 0 1 0 180.6 180.61 180.61 180.61 0 0 0-180.6-180.61z m82.45 263.06a116.61 116.61 0 1 1 34.15-82.45 115.84 115.84 0 0 1-34.15 82.45z"  p-id="1857"></path><path d="M243.34 597.49a180.61 180.61 0 1 0 180.6 180.61 180.61 180.61 0 0 0-180.6-180.61z m0 297.21a116.61 116.61 0 1 1 82.45-34.15 115.84 115.84 0 0 1-82.45 34.15zM499.2 697.42a32 32 0 0 0-9.37-22.63L338.07 523a0.49 0.49 0 0 1 0-0.07 31.85 31.85 0 0 0 8-7.66l14.56-14.56a32 32 0 0 0 0.22 45l136.24 136.34q1 1 2.05 1.88l0.5 0.68v0.09a32.05 32.05 0 0 0-0.42 5.15z m194.73-238.67l-0.36-0.17L570.8 335.8a32 32 0 0 0-45.2-0.05l19.61-19.61a31.9 31.9 0 0 0 3.26-2.67l135.92 135.91a32 32 0 0 0 22.61 9.37z"  p-id="1858"></path><path d="M548.48 281.5a44.44 44.44 0 0 0-25.9 12L323.41 492.69a31.91 31.91 0 0 0-3.21 3.75 32 32 0 0 0-4.79 49.19L467.2 697.42v158.85a32 32 0 1 0 64 0V689.84a33.49 33.49 0 0 0-11.48-30.42L383.45 523.15l164.73-164.73L671 481.26a33 33 0 0 0 22.91 9.49h161.94a32 32 0 0 0 0-64H707L571.1 290.83a31.89 31.89 0 0 0-22.62-9.33z"  p-id="1859"></path></svg>