<?xml version="1.0" standalone="no"?><!DOCTYPE svg PUBLIC "-//W3C//DTD SVG 1.1//EN" "http://www.w3.org/Graphics/SVG/1.1/DTD/svg11.dtd"><svg t="1604926126889" class="icon" viewBox="0 0 1024 1024" version="1.1" xmlns="http://www.w3.org/2000/svg" p-id="10402" xmlns:xlink="http://www.w3.org/1999/xlink" width="200" height="200"><defs><style type="text/css"></style></defs><path d="M693.702853 63.314001c-68.455091 0-133.360334 25.736151-182.24367 71.499427-48.88436-45.763276-113.790626-71.499427-182.247764-71.499427-146.901745 0-266.370697 119.495558-266.370697 266.372743 0 63.080687 22.211884 124.386962 62.574151 172.660409l395.017682 366.646517 38.133505-41.149189-391.214053-362.818329c-30.831192-37.473473-48.479131-86.685291-48.479131-135.339408 0-115.971291 94.370321-210.289424 210.338543-210.289423 62.47182 0 121.090892 27.030633 160.798242 74.136487l21.449522 25.431206 21.448498-25.431206c39.703257-47.106878 98.323353-74.136487 160.795172-74.136487 115.971291 0 210.289424 94.318132 210.289424 210.289423 0 48.604998-17.59575 97.79021-48.324612 135.240148L548.678876 743.543494l37.675064 41.505299 308.459281-279.935644 2.689248-2.764973c40.36329-48.273447 62.574151-109.579721 62.574151-172.660408 0-146.878209-119.469975-266.373767-266.373767-266.373767z m-27.076682 177.707355c25.251104-7.275707 51.77213-4.335748 74.642001 8.26729l27.076682-49.113581c-36.053124-19.826558-77.68429-24.490787-117.287263-13.030781-39.60195 11.460006-72.360028 37.626969-92.238774 73.65451l49.13507 27.053146c12.627598-22.89443 33.469276-39.528272 58.672284-46.830584z m-337.414752-9.456373v-56.084343c-85.035722 0-154.255223 69.167313-154.255223 154.205081 0 34.023908 11.358699 67.744917 31.946596 94.949512l282.344506 262.494413 38.132483-41.124629-277.120529-257.041214c-12.219299-16.98586-19.218714-38.460963-19.218713-59.277059 0-54.106292 44.067658-98.121761 98.17088-98.121761z" p-id="10403"></path></svg>