<?xml version="1.0" standalone="no"?><!DOCTYPE svg PUBLIC "-//W3C//DTD SVG 1.1//EN" "http://www.w3.org/Graphics/SVG/1.1/DTD/svg11.dtd"><svg t="1604756809451" class="icon" viewBox="0 0 1024 1024" version="1.1" xmlns="http://www.w3.org/2000/svg" p-id="8004" xmlns:xlink="http://www.w3.org/1999/xlink" width="200" height="200"><defs><style type="text/css"></style></defs><path d="M231.718 222.664c20.988 60.401 64.817 108.262 120.886 134.1-11.231-36.102-5.386-64.918-5.386-95.1 0-26.593-4.538-52.126-12.881-75.866-20.52-58.798-64.363-106.657-120.443-132.492 11.267 36.108 5.424 64.912 5.424 95.081 0 26.598 4.541 52.135 12.892 75.878zM620.769 222.664c-20.992 60.403-64.825 108.264-120.899 134.101 11.239-36.099 5.395-64.912 5.395-95.088 0-26.598 4.539-52.134 12.886-75.879 20.52-58.799 64.361-106.657 120.441-132.497-11.272 36.116-5.429 64.925-5.429 95.098 0 26.593-4.539 52.127-12.885 75.867z" fill="#ffffff" p-id="8005"></path><path d="M235.23 124.848c-9.158 22.697-14.865 48.981-15.757 76.482 5.234 1.933 11.998 24.315 21.755 45.008 11.47 36.733 55.298 84.594 111.368 110.432-12.142-33.977-6.433-60.285-5.541-87.81-5.241-1.883-12.001-24.278-21.754-44.985-11.474-36.697-55.308-84.554-111.379-110.385zM517.66 247.675c-7.117 20.153-11.545 43.413-12.232 67.609 4.354-5.012 9.005 13.028 15.752 30.229 53.539-32.244 92.29-84.417 106.194-146.007 0.514 3.003 4.941-20.267 5.629-44.472-5.658-4.332-13.86-29.528-25.816-52.454-43.469 54.508-82.223 106.677-96.132 168.263z" fill="#ffffff" p-id="8006"></path><path d="M345.446 183.767c-19.139-54.733-55.792-99.293-103.121-128.016l26.498 18.618c-23.357-18.96-51.024-33.667-81.218-42.43 73.191 36.236 72.637 35.795 72.067 35.383-25.341-18.582-55.178-32.797-87.464-40.811 79.571 35.307 78.905 34.813 78.216 34.356-24.544-16.472-53.354-28.839-84.325-35.323 73.253 28.39 71.268 27.802 69.144 27.802-4.726 0-8.771 2.917-10.432 7.048-8.010 19.921-13.488 42.906-15.36 66.903 10.803-54.171 10.503-53.159 10.181-52.148-6.118 18.383-10.091 39.619-11.040 61.638l4.638-37.39c-2.973 13.662-4.784 29.436-5.001 45.593 1.069-19.585 0.986-18.507 0.889-17.437-0.573 6.151-0.9 13.302-0.9 20.529 0 0.299 0.001 0.598 0.002 0.897 0 1.355-0.030 2.748 0 4.148 0.075 3.818 0.239 7.638 0.494 11.456l0.045 0.967c0.007 0.128 0.060 0.248 0.075 0.375 1.491 20.436 5.549 40.737 12.266 60.372 22.146 63.412 68.191 113.659 127.070 140.845-20.975-10.994-18.988-10.405-16.864-10.405 1.301 0 2.551-0.22 3.713-0.627 3.337-1.169 5.955-3.869 7.011-7.257 10.245-25.315 16.344-55.542 16.344-87.194 0-27.885-4.733-54.666-13.442-79.58zM325.458 328.439c-45.683-31.643-78.387-79.246-90.142-134.593 0.311 6.013-3.783-16.102-4.264-39.107l65.525-17.64c11.547 16.542 20.997 34.597 27.618 53.94 7.426 21.053 11.717 45.332 11.717 70.612 0 23.864-3.823 46.835-10.891 68.333zM644.277 153.208c0.030-1.506 0-3.011 0-4.516 0-2.636-0.023-5.272-0.105-7.908-0.26-7.657-0.825-14.825-1.695-21.898 0.803 7.64 0.722 6.524 0.609 5.416-1.725-16.874-4.891-32.257-9.434-47.037l5.263 20.528c-4.597-20.959-11.079-39.407-19.484-56.75 10.182 21.861 2.093 3.126-8.123-14.207 21.241 47.272 20.941 46.275 20.612 45.294-8.212-24.405-19.172-45.592-32.83-64.718 26.937 48.845 22.892 45.929 18.165 45.929-2.122 0-4.106 0.588-5.799 1.609-27.246 16.483-50.22 37.192-68.732 61.483 58.666-55.116 57.999-54.629 57.318-54.165-2.434 1.647-4.853 3.318-7.219 5.048-0.563 0.412-1.101 0.838-1.662 1.258-25.272 18.886-46.173 42.082-61.96 68.671l53.722-62.254c-43.071 35.233-73.53 84.458-84.451 140.662 0.39-8.665-4.344 18.115-4.344 46.002 0 31.653 6.099 61.881 17.188 89.572 1.116 2.585 5.163 5.503 9.892 5.503 2.121 0 4.103-0.587 5.797-1.607 56.13-33.929 96.798-88.738 111.447-153.421 0.728 2.573 5.404-22.827 5.815-49.262-0.581 13.378-0.521 13.251-0.514 13.108 0.022-0.352 0.022-0.703 0.045-1.048 0.239-3.759 0.404-7.526 0.478-11.292zM527.014 328.439c-6.624-19.952-10.446-42.92-10.446-66.781 0-25.284 4.291-49.568 12.184-72.159 11.653-32.933 31.001-62.24 55.885-85.746l35.937 67.389c-2.477 23.735-8.392 45.478-17.27 65.62-12.052 36.352-49.992 79.726-98.757 105.227z" p-id="8007"></path><path d="M326.724 985.873c-0.004 8.963-7.271 16.228-16.235 16.228 0 0 0 0 0 0h-26.367c-8.962 0-16.228-7.266-16.228-16.228v-32.448c0-8.964 7.265-16.221 16.228-16.221h26.367c8.963 0 16.235 7.257 16.235 16.221v32.447zM584.593 985.873c0 8.963-7.265 16.228-16.228 16.228h-26.367c0 0-0.001 0-0.001 0-8.963 0-16.231-7.265-16.235-16.228v-32.448c0-8.964 7.271-16.221 16.236-16.221h26.367c8.963 0 16.228 7.257 16.228 16.221v32.447z" fill="#ffffff" p-id="8008"></path><path d="M310.489 1013.333h-26.367c-15.159-0.017-27.443-12.301-27.46-27.458v-32.45c0.017-15.158 12.302-27.44 27.458-27.453h26.369c15.158 0.017 27.442 12.296 27.468 27.45v32.45c-0.017 15.162-12.306 27.449-27.468 27.461zM284.122 948.437c0 0 0 0 0 0-2.756 0-4.99 2.232-4.995 4.988v32.447c0.002 2.758 2.237 4.994 4.995 4.996h26.367c0 0 0 0 0 0 2.76 0 4.998-2.235 5.003-4.995v-32.448c0-2.749-2.247-4.988-5.003-4.988h-26.367zM568.365 1013.333h-26.367c-15.161-0.017-27.447-12.3-27.469-27.458v-32.45c0.025-15.158 12.31-27.436 27.467-27.453h26.369c15.158 0.013 27.443 12.295 27.46 27.451v32.449c-0.017 15.159-12.301 27.444-27.458 27.461zM541.99 948.437c0 0 0 0 0 0-2.757 0-4.994 2.231-5.002 4.987v32.448c0 2.756 2.246 4.996 5.002 4.996h26.367c0 0 0 0 0 0 2.759 0 4.995-2.236 4.995-4.995 0 0 0 0 0 0v-32.448c-0.005-2.755-2.239-4.988-4.995-4.988 0 0 0 0 0 0h-26.367z" p-id="8009"></path><path d="M622.536 760.258v-285.268c0-100.511-81.774-182.293-182.278-182.293h-28.044c-100.504 0-182.272 81.782-182.272 182.293v285.268c-12.84 13.793-20.721 32.353-20.721 52.753 0 0.004 0 0.007 0 0.011v64.611c0 43.043 34.882 77.91 77.911 77.91h278.199c43.022 0 77.911-34.866 77.911-77.91v-64.612c0-0.017 0-0.038 0-0.058 0-20.383-7.876-38.926-20.75-52.753z" fill="#ffffff" p-id="8010"></path><path d="M622.535 760.258v-237.175c0-100.511-81.774-182.287-182.278-182.287h-28.044c-100.505 0-182.272 81.776-182.272 182.287v285.276c-12.839 13.795-20.721 32.357-20.721 52.759 0 0.002 0 0.004 0 0.006v16.513c0 43.043 34.882 77.91 77.911 77.91h278.199c43.022 0 77.911-34.866 77.911-77.91v-16.513c0-20.377-7.901-38.873-20.722-52.764v-48.099z" fill="#ffffff" p-id="8011"></path><path d="M565.347 966.777h-278.199c-49.155 0-89.143-39.989-89.143-89.143v-64.612c0-20.893 7.331-40.955 20.721-56.988v-281.044c0-106.713 86.807-193.526 193.504-193.526h28.044c106.704 0 193.511 86.814 193.511 193.526v281.037c12.889 15.301 20.721 35.23 20.721 56.989v64.611c-0.015 49.163-40.003 89.151-89.158 89.151zM412.214 303.936c-94.311 0-171.038 76.735-171.038 171.061v285.268c0 2.823-1.072 5.55-2.981 7.623-10.985 11.811-17.728 27.697-17.733 45.157v64.595c0 36.769 29.908 66.678 66.678 66.678h278.199c36.769 0 66.678-29.917 66.678-66.678v-64.612c-0.007-17.461-6.755-33.344-17.781-45.191-1.802-1.943-2.933-4.623-2.933-7.567 0-0.002 0-0.004 0-0.006v-285.276c0-94.326-76.727-171.061-171.045-171.061h-28.044z" p-id="8012"></path><path d="M954.196 585.064l-205.403-87.414-197.735 150.444 91.967 39.158-224.993 193.804 437.848-148.79-103.004-43.837z" fill="#ffffff" p-id="8013"></path><path d="M699.923 714.593l201.329-103.372-193.511-82.344-156.683 119.217 91.967 39.157-224.993 193.804 374.232-127.155z" fill="#ffffff" p-id="8014"></path><path d="M418.032 892.295c-0.004 0-0.007 0-0.012 0-6.203 0-11.233-5.030-11.233-11.233 0-4.916 3.158-9.095 7.557-10.618l410.092-139.355-75.949-32.32c-4.057-1.755-6.843-5.722-6.843-10.34 0-4.329 2.45-8.089 6.038-9.963l180.064-92.453-177.351-75.47-177.157 134.786 74.189 31.594c4.207 1.686 7.126 5.73 7.126 10.455 0 6.203-5.030 11.233-11.233 11.233-1.702 0-3.315-0.379-4.761-1.056l-91.898-39.129c-4.054-1.751-6.838-5.714-6.838-10.329 0-3.637 1.732-6.871 4.415-8.921l197.755-150.464c1.866-1.431 4.234-2.295 6.803-2.295 1.586 0 3.097 0.329 4.464 0.922l205.338 87.385c4.057 1.755 6.842 5.722 6.842 10.34 0 4.33-2.45 8.087-6.039 9.963l-180.079 92.445 80.959 34.455c4.054 1.756 6.838 5.722 6.838 10.338 0 4.913-3.153 9.088-7.546 10.614l-437.933 148.813c-1.081 0.38-2.325 0.599-3.621 0.599zM366.031 522.579c-6.203-0.002-11.229-5.031-11.229-11.233 0-3.098 1.254-5.904 3.284-7.937 40.857-40.873 107.333-40.873 148.206-0.015 2.124 2.047 3.443 4.916 3.443 8.093 0 6.203-5.030 11.233-11.233 11.233-3.177 0-6.047-1.319-8.091-3.441-32.099-32.108-84.354-32.093-116.443 0.011-2.027 2.031-4.829 3.287-7.925 3.287-0.005 0-0.009 0-0.014 0zM498.355 612.411c-0.007 0-0.014 0-0.022 0-3.095 0-5.898-1.255-7.925-3.287-32.103-32.096-84.336-32.096-116.439 0-2.047 2.124-4.916 3.443-8.093 3.443-6.203 0-11.233-5.030-11.233-11.233 0-3.177 1.319-6.047 3.441-8.091 40.869-40.869 107.345-40.869 148.209-0.004 2.030 2.033 3.285 4.838 3.285 7.938 0 6.201-5.023 11.227-11.222 11.233zM297.309 1013.333h-58.231c-0.031 0-0.067 0-0.102 0-6.203 0-11.233-5.030-11.233-11.233 0-6.203 5.030-11.233 11.233-11.233 0.036 0 0.073 0 0.108 0.001h58.225c0.031 0 0.067 0 0.102 0 6.203 0 11.233 5.030 11.233 11.233 0 6.203-5.030 11.233-11.233 11.233-0.036 0-0.071 0-0.108-0.001zM190.89 1013.333h-0.674c-0.031 0-0.067 0-0.102 0-6.203 0-11.233-5.030-11.233-11.233 0-6.203 5.030-11.233 11.233-11.233 0.036 0 0.071 0 0.108 0.001 6.195 0 11.564 5.025 11.564 11.232s-4.695 11.233-10.896 11.233zM152.017 1013.333h-0.675c-0.031 0-0.067 0-0.102 0-6.203 0-11.233-5.030-11.233-11.233 0-6.203 5.030-11.233 11.233-11.233 0.036 0 0.071 0 0.108 0.001 6.196 0 11.565 5.025 11.565 11.232s-4.695 11.233-10.896 11.233zM113.143 1013.333h-0.674c-0.031 0-0.067 0-0.102 0-6.203 0-11.233-5.030-11.233-11.233 0-6.203 5.030-11.233 11.233-11.233 0.036 0 0.071 0 0.108 0.001 6.195 0 11.564 5.025 11.564 11.232s-4.695 11.233-10.896 11.233z" p-id="8015"></path></svg>